<?xml version="1.0" encoding="UTF-8"?>
<svg version="1.1" xmlns="http://www.w3.org/2000/svg" width="473" height="449">
<path d="M0 0 C156.09 0 312.18 0 473 0 C473 148.17 473 296.34 473 449 C316.91 449 160.82 449 0 449 C0 300.83 0 152.66 0 0 Z " fill="#F2F2ED" transform="translate(0,0)"/>
<path d="M0 0 C156.09 0 312.18 0 473 0 C473 148.17 473 296.34 473 449 C316.91 449 160.82 449 0 449 C0 300.83 0 152.66 0 0 Z M80.625 25.25 C79.95710449 25.55446045 79.28920898 25.8589209 78.60107422 26.17260742 C73.10460724 28.76975826 68.46579829 31.85439102 64 36 C63.19304688 36.71671875 62.38609375 37.4334375 61.5546875 38.171875 C47.03452634 51.75954875 38.11440161 69.96513716 36.81310964 89.85682619 C36.73970055 92.76587188 36.72359771 95.66895231 36.73257446 98.5789032 C36.72804335 99.67972081 36.72351224 100.78053843 36.71884382 101.91471416 C36.70627792 105.56908177 36.70781513 109.22329885 36.70947266 112.87768555 C36.70348253 115.51194298 36.69673147 118.14618902 36.68911743 120.78044128 C36.67258011 127.17335765 36.6670112 133.56623712 36.66589268 139.95917311 C36.66493876 145.16135866 36.6608114 150.36353215 36.65449142 155.56571388 C36.63689903 170.34983862 36.62764944 185.13393446 36.62915237 199.91806974 C36.62923228 200.71330741 36.6293122 201.50854508 36.62939453 202.32788086 C36.62947629 203.12410155 36.62955805 203.92032224 36.62964229 204.74067084 C36.63045468 217.63566039 36.61132379 230.53053299 36.5831178 243.42548873 C36.55431271 256.70021469 36.54058168 269.97488375 36.54230535 283.24964172 C36.54296661 290.6886358 36.53759074 298.12750727 36.51594925 305.56647301 C36.49763671 311.90119588 36.49347196 318.23574054 36.5069681 324.57047858 C36.51344746 327.79500988 36.51157727 331.01913353 36.4962616 334.24364471 C36.38137683 360.12238839 40.16817564 384.02804387 58.6015625 403.625 C75.99531128 420.8487773 96.7003527 427.182475 120.78276062 427.12698364 C122.35981324 427.12932363 122.35981324 427.12932363 123.9687255 427.13171089 C127.47354958 427.135683 130.97832994 427.1325459 134.4831543 427.12939453 C137.00360642 427.13075029 139.52405834 427.13253121 142.04450989 427.13470459 C148.17012684 427.13878661 154.29572774 427.13819504 160.4213449 427.13529195 C165.40480217 427.13302854 170.388256 427.13272946 175.37171364 427.13381577 C176.08249531 427.133969 176.79327698 427.13412223 177.52559749 427.13428011 C178.96984944 427.13459986 180.4141014 427.13492407 181.85835335 427.1352527 C195.38922827 427.13810154 208.92009641 427.13483035 222.45097021 427.12945233 C234.03689696 427.12498966 245.62281367 427.12575695 257.20874023 427.13037109 C270.68525905 427.13573571 284.16177192 427.13782184 297.63829166 427.13475883 C299.07859695 427.13444031 300.51890224 427.13412594 301.95920753 427.13381577 C303.02198092 427.13358435 303.02198092 427.13358435 304.10622447 427.13334826 C309.0755906 427.13248841 314.04495293 427.13393461 319.01431847 427.13629532 C325.71940665 427.13941072 332.42447313 427.13715802 339.12956047 427.13140106 C341.58283711 427.13008498 344.03611534 427.1304479 346.48939133 427.13266373 C374.01457357 427.15522158 400.42257473 426.45579559 422 407 C422.57492187 406.51660156 423.14984375 406.03320312 423.7421875 405.53515625 C440.96966788 389.93515673 446.52773225 367.32134206 448 345 C448.12782843 341.30622552 448.14788618 337.61712899 448.14717102 333.9213562 C448.15268605 332.3508174 448.15268605 332.3508174 448.1583125 330.74855053 C448.16923482 327.27620951 448.17317344 323.80389851 448.17700195 320.33154297 C448.18327512 317.82698982 448.18992267 315.32243759 448.19691467 312.81788635 C448.21604411 305.33293656 448.22672564 297.84799475 448.23564246 290.36302775 C448.23915945 287.53636425 448.24330496 284.70970185 448.24748212 281.88303926 C448.26593207 269.39573854 448.28168006 256.90843777 448.28938007 244.42112541 C448.29128948 241.37450026 448.2932099 238.32787512 448.29516602 235.28125 C448.29564976 234.52416961 448.2961335 233.76708922 448.2966319 232.987067 C448.30492802 220.72970934 448.3302661 208.47244939 448.36274669 196.21513437 C448.39591956 183.59242712 448.41383774 170.96976939 448.41702431 158.34701836 C448.41917918 151.27518704 448.42777737 144.20349854 448.45348549 137.13171005 C448.47763175 130.47491973 448.48095459 123.81842935 448.47072411 117.16158867 C448.4702314 114.73094389 448.47647252 112.30028602 448.49028015 109.8696804 C448.57842399 93.42156282 448.4179265 76.22748347 440.1875 61.4375 C439.66820923 60.45704712 439.66820923 60.45704712 439.13842773 59.45678711 C436.27535748 54.19070109 433.03681362 49.44396006 429 45 C428.35804688 44.26652344 427.71609375 43.53304687 427.0546875 42.77734375 C408.79884934 23.1405289 385.60180953 20.02672065 360.10599208 19.09350681 C350.57892751 18.80669171 341.04631765 18.84310999 331.51586914 18.83886719 C329.044382 18.83422476 326.57289556 18.82919826 324.10140991 18.82382202 C317.45935619 18.81084629 310.81730975 18.80424564 304.17524648 18.79981136 C300.01507332 18.79702375 295.85490239 18.79278278 291.69473076 18.78830719 C280.13281559 18.77614919 268.57090216 18.76583605 257.00898075 18.7624321 C256.27372119 18.76221253 255.53846164 18.76199297 254.78092149 18.76176675 C253.67576386 18.76143933 253.67576386 18.76143933 252.54827982 18.7611053 C251.05586819 18.76066187 249.56345655 18.7602153 248.07104492 18.75976562 C246.96067015 18.75943348 246.96067015 18.75943348 245.82786357 18.75909463 C233.80839535 18.75513846 221.78898742 18.73764399 209.76954252 18.7144061 C197.3736652 18.69063671 184.97781816 18.67822809 172.5819177 18.67706418 C165.64393928 18.67615174 158.70604001 18.67050691 151.76808357 18.65224457 C145.24993359 18.63514393 138.73189352 18.63363222 132.21372604 18.64238358 C129.83180653 18.6431509 127.44987876 18.63885176 125.06797981 18.62892532 C109.74845193 18.56885452 94.7918098 18.6177191 80.625 25.25 Z " fill="#F2F2ED" transform="translate(0,0)"/>
<path d="M0 0 C1.53539591 -0.00233999 1.53539591 -0.00233999 3.10180992 -0.00472724 C6.52507693 -0.00870942 9.94829944 -0.00555821 13.37156677 -0.00241089 C15.8294833 -0.00376629 18.28739962 -0.005547 20.74531555 -0.00772095 C26.72817429 -0.01180847 32.71101565 -0.01120799 38.69387371 -0.00830831 C43.56623075 -0.00604536 48.43858428 -0.00574563 53.3109417 -0.00683212 C54.00580776 -0.00698536 54.70067382 -0.00713859 55.41659642 -0.00729647 C56.8286206 -0.00761622 58.24064477 -0.00794043 59.65266895 -0.00826906 C72.89430344 -0.01112037 86.13593101 -0.00784393 99.37756436 -0.00246869 C110.69604392 0.00198424 122.01451319 0.00123526 133.33299255 -0.00338745 C146.50559961 -0.00876499 159.67820056 -0.0108302 172.85080856 -0.00777519 C174.26208015 -0.00745668 175.67335174 -0.00714231 177.08462334 -0.00683212 C177.77878265 -0.00667785 178.47294197 -0.00652357 179.18813642 -0.00636462 C184.03700174 -0.00550785 188.88586314 -0.00694439 193.73472786 -0.00931168 C200.29699762 -0.01244516 206.85925128 -0.01014553 213.42152023 -0.00441742 C215.81338278 -0.00310927 218.20524697 -0.00345028 220.59710884 -0.00568008 C231.98473184 -0.01530616 243.35336777 0.06541071 254.73178101 0.5569458 C255.60635376 0.5935868 256.48092651 0.63022779 257.38200146 0.66797912 C280.50110655 1.79567564 299.14263672 9.48244501 315.26390076 26.30667114 C318.99314158 30.62159402 321.96957686 35.12939504 324.70140076 40.12698364 C325.16159607 40.95327271 325.62179138 41.77956177 326.09593201 42.63088989 C334.34031398 58.94530135 334.27691999 76.63229072 334.1872406 94.46072388 C334.18939105 96.96454059 334.19327554 99.46835631 334.19874573 101.97216797 C334.20737687 108.02414003 334.19765806 114.07582053 334.17904513 120.12774854 C334.15809134 127.19982557 334.15842242 134.271857 334.15939029 141.34395922 C334.16038786 153.97716525 334.14216949 166.61026943 334.11302185 179.24343872 C334.08486059 191.45569717 334.07068042 203.66786609 334.07200623 215.88015747 C334.07208614 216.63234365 334.07216605 217.38452983 334.07224838 218.15950953 C334.07232909 218.91049373 334.0724098 219.66147793 334.07249296 220.43521923 C334.07387885 234.40446184 334.06205647 248.373667 334.04418653 262.3428974 C334.03819728 267.25291121 334.03603261 272.16291804 334.03512192 277.0729351 C334.03360116 283.70267473 334.02076363 290.33233403 334.00078964 296.96204758 C333.9949991 299.38097505 333.99247668 301.79991315 333.99364471 304.21884727 C333.99690008 315.07424521 333.9315876 325.86716866 332.8316803 336.67546082 C332.75747057 337.4114549 332.68326085 338.14744899 332.60680234 338.90574592 C330.28167751 358.85103992 320.109179 378.18546693 304.70140076 391.12698364 C281.3776278 408.42366542 256.35409362 408.27883867 228.65061951 408.27224731 C226.12942963 408.27524362 223.60824022 408.27864723 221.08705139 408.28242493 C214.97883263 408.29030784 208.87062805 408.29347733 202.76240468 408.2940373 C197.79336871 408.2945147 192.82433588 408.29658054 187.8553009 408.29973793 C173.73185034 408.30852811 159.60840732 408.31315956 145.484954 408.31240746 C144.72590291 408.3123675 143.96685183 408.31232754 143.18479919 408.31228638 C142.42480995 408.3122455 141.66482071 408.31220462 140.88180149 408.3121625 C128.56047037 408.31175588 116.2391698 408.32133356 103.91784751 408.33542474 C91.23181531 408.34981739 78.54579799 408.35669343 65.85975742 408.35583097 C58.75124379 408.35550013 51.64276222 408.35819782 44.53425598 408.36900902 C37.84960464 408.37911159 31.16503202 408.37874935 24.48037338 408.37149239 C22.03515397 408.37045032 19.58993028 408.37278684 17.14471817 408.37885284 C-9.67807715 408.44105707 -32.34521345 405.66552887 -53.29859924 387.12698364 C-53.92250549 386.59717896 -54.54641174 386.06737427 -55.18922424 385.52151489 C-69.32672289 372.62582356 -76.79566148 351.07245705 -77.66448593 332.30405235 C-77.8532628 325.40372607 -77.81722269 318.50447561 -77.78443909 311.60232544 C-77.78658877 308.95920546 -77.79031308 306.31612994 -77.79594421 303.67301941 C-77.80595062 297.2790514 -77.79484491 290.88529274 -77.77624361 284.49135079 C-77.75532662 277.02943869 -77.75561987 269.56757009 -77.75658877 262.10563419 C-77.75758668 248.7861281 -77.7393549 235.46671858 -77.71022034 222.14724731 C-77.68202384 209.2497685 -77.66788031 196.35237456 -77.66920471 183.4548645 C-77.66928462 182.65962683 -77.66936454 181.86438916 -77.66944687 181.04505339 C-77.66952758 180.25112961 -77.66960829 179.45720583 -77.66969144 178.63922375 C-77.67107386 163.90995535 -77.65927916 149.18072268 -77.64138501 134.4514659 C-77.63537474 129.26065411 -77.6332286 124.06984893 -77.6323204 118.87903404 C-77.63095091 112.54980479 -77.62194871 106.22063587 -77.60365479 99.89143219 C-77.59447358 96.66760286 -77.58938095 93.44386482 -77.5908432 90.22002029 C-77.59183104 86.71521629 -77.58045088 83.21065664 -77.56602478 79.70588684 C-77.56912198 78.70188093 -77.57221919 77.69787503 -77.57541025 76.6634447 C-77.42434854 54.31827223 -68.88223514 36.00165518 -53.29859924 20.12698364 C-52.61152893 19.41542114 -51.92445862 18.70385864 -51.21656799 17.97073364 C-37.52664635 4.76338809 -18.50896492 -0.0435066 0 0 Z M-34.17359924 45.00198364 C-35.24216733 46.35618329 -36.28541483 47.73086338 -37.29859924 49.12698364 C-37.75879456 49.73155396 -38.21898987 50.33612427 -38.69313049 50.95901489 C-45.92555143 61.33786669 -46.89245989 73.27340917 -46.84449768 85.54885864 C-46.85324947 87.05673775 -46.86373096 88.56460763 -46.87578106 90.07246399 C-46.90348711 94.15306277 -46.90698959 98.23335823 -46.90604091 102.31403732 C-46.90932419 106.66654762 -46.93544768 111.01892776 -46.95877075 115.37136841 C-47.00004845 123.74117906 -47.02065753 132.1109093 -47.03331059 140.4808073 C-47.04839885 150.08408089 -47.08229968 159.68725877 -47.11711323 169.29047775 C-47.17157726 184.45254158 -47.21228886 199.61459077 -47.24194705 214.77672195 C-47.27547732 231.82623399 -47.3507732 248.87473611 -47.467556 265.92388916 C-47.50981577 272.42412441 -47.5403752 278.92441852 -47.56860161 285.42472839 C-47.58973151 290.20385189 -47.61652595 294.9827603 -47.65858459 299.76174927 C-47.69624071 304.10031459 -47.71473236 308.43852846 -47.71780205 312.7772522 C-47.72204652 314.29332071 -47.7329164 315.80939204 -47.75187874 317.3253479 C-47.96058709 334.59459475 -44.36320865 351.32793973 -32.27906799 364.34573364 C-20.86150144 374.61478758 -6.25339065 377.44957693 8.62460327 377.38095093 C9.6789428 377.38407091 10.73328234 377.38719089 11.81957155 377.39040542 C15.32833502 377.39833903 18.83692332 377.39207984 22.34568787 377.38577271 C24.87115581 377.38848464 27.39662296 377.39204671 29.92208862 377.39639282 C36.0552672 377.40455131 42.18838165 377.40337709 48.32156103 377.39756754 C53.30931383 377.39303974 58.29705293 377.39244298 63.28480721 377.39461517 C64.35207573 377.39507487 64.35207573 377.39507487 65.44090523 377.39554386 C66.88661285 377.39618335 68.33232047 377.39683178 69.77802808 377.39748904 C83.3164547 377.40318435 96.85485418 377.39664722 110.39327634 377.38588831 C121.99266148 377.37695545 133.59200658 377.3785042 145.19139099 377.38772583 C158.6818101 377.39844593 172.17220546 377.40263308 185.66262823 377.3965013 C187.103145 377.39586425 188.54366177 377.39523551 189.98417854 377.39461517 C190.69282128 377.39430662 191.40146402 377.39399807 192.13158078 377.39368017 C197.10888457 377.3919583 202.08617321 377.39485739 207.06347466 377.39957428 C213.77187244 377.40579231 220.48018328 377.40132043 227.18857765 377.38978577 C229.64633942 377.38714796 232.10410756 377.38788921 234.56186676 377.3923111 C237.92506751 377.39780273 241.28802896 377.3908885 244.6512146 377.38095093 C246.09871791 377.38764309 246.09871791 377.38764309 247.57546371 377.39447045 C263.70161344 377.30249627 277.08112159 373.32283873 288.82640076 362.09573364 C299.59034901 350.84251502 303.0159081 338.21624828 302.96882629 323.0650177 C302.97562296 321.44297109 302.97562296 321.44297109 302.98255694 319.78815585 C302.99516906 316.18189752 302.99358261 312.57579082 302.9919281 308.96951294 C302.99791529 306.37684943 303.00472127 303.78418771 303.01228333 301.19152832 C303.02884834 294.89011654 303.03439081 288.58874219 303.03550808 282.28731044 C303.0364606 277.16224121 303.04058102 272.03718426 303.04690933 266.91211891 C303.06450866 252.36162894 303.07375013 237.81116839 303.07224838 223.2606677 C303.07216847 222.47735519 303.07208856 221.69404267 303.07200623 220.88699341 C303.07188358 219.71057989 303.07188358 219.71057989 303.07175846 218.51040045 C303.0709457 205.80260418 303.09008427 193.09492648 303.11828296 180.3871645 C303.14705041 167.31934979 303.16082117 154.25159284 303.15909541 141.18374568 C303.15843289 133.85497164 303.16386453 126.52632194 303.18545151 119.19757652 C303.20562872 112.30363931 303.20495027 105.40996824 303.19041824 98.51601791 C303.18833055 95.99094445 303.19302856 93.46585453 303.20513916 90.94080925 C303.22064245 87.48353402 303.21124892 84.02715728 303.19587708 80.56990051 C303.21130776 79.08488833 303.21130776 79.08488833 303.22705019 77.5698759 C303.1014467 64.71342179 298.32119217 54.2473264 289.63499451 44.90432739 C273.18402797 29.15966353 249.33530478 30.67929962 228.10472107 30.72293091 C225.57308656 30.71721693 223.04145461 30.71024873 220.50982666 30.70213318 C214.39142285 30.68614955 208.27315842 30.68407621 202.15474018 30.68934608 C197.17768624 30.69341204 192.20066247 30.69191573 187.22360992 30.68659782 C186.5112723 30.6858494 185.79893468 30.68510098 185.06501107 30.68432988 C183.61729591 30.6827982 182.16958077 30.68125985 180.72186562 30.67971491 C167.19808714 30.66604048 153.67436678 30.67139331 140.15058967 30.68290012 C127.80683555 30.69284212 115.46323112 30.67986617 103.11950007 30.65596593 C90.40168752 30.63152926 77.68394457 30.62197734 64.96610904 30.62861866 C57.84309194 30.63209883 50.72019004 30.62995794 43.59719086 30.61236763 C36.90255336 30.59603773 30.20824684 30.60089771 23.5136013 30.61967278 C21.06515493 30.62334691 18.6166872 30.62028474 16.16826057 30.60978699 C-1.60770408 30.53941996 -21.20121432 30.77420663 -34.17359924 45.00198364 Z " fill="#01A4FE" transform="translate(114.29859924316406,18.873016357421875)"/>
<path d="M0 0 C1.90265625 0.0009668 1.90265625 0.0009668 3.84375 0.00195312 C4.83133301 0.01440063 4.83133301 0.01440063 5.83886719 0.02709961 C7.83775765 0.05061882 9.83691468 0.04591519 11.8359375 0.04101562 C26.23461404 0.12133279 26.23461404 0.12133279 29.4765625 3.36328125 C29.56382473 5.14399371 29.58355291 6.92811265 29.57421875 8.7109375 C29.56938477 10.33032227 29.56938477 10.33032227 29.56445312 11.98242188 C29.55188477 13.68688477 29.55188477 13.68688477 29.5390625 15.42578125 C29.53455078 16.56595703 29.53003906 17.70613281 29.52539062 18.88085938 C29.51355997 21.70838476 29.4970766 24.53580765 29.4765625 27.36328125 C30.04213867 27.48227783 30.60771484 27.60127441 31.19042969 27.72387695 C52.24805696 32.26109488 71.72894947 40.87413752 83.8828125 59.4921875 C89.31752997 69.28267117 94.60563198 80.30013792 94.9140625 91.67578125 C94.95402344 92.49691406 94.99398437 93.31804687 95.03515625 94.1640625 C94.4765625 96.36328125 94.4765625 96.36328125 92.46435547 97.96875 C88.66385643 99.74260606 85.22746489 99.84048371 81.11328125 99.875 C80.32129837 99.8929512 79.52931549 99.9109024 78.71333313 99.92939758 C76.19696288 99.98334963 73.68078065 100.01734688 71.1640625 100.05078125 C69.45244788 100.08396776 67.74085802 100.11845866 66.02929688 100.15429688 C61.84518808 100.23906707 57.66113357 100.30594968 53.4765625 100.36328125 C51.47972207 97.10063209 49.8608526 94.0167389 48.5390625 90.42578125 C45.53069735 82.80909645 41.46318822 76.79432706 34.4765625 72.36328125 C20.77329221 66.422212 6.73440613 65.17673234 -7.5234375 70.36328125 C-13.32936364 73.13299356 -17.93880361 76.46000556 -20.42578125 82.5859375 C-23.43492308 91.55789494 -23.6723168 99.71714347 -19.5234375 108.36328125 C-13.32336555 118.86544395 -0.31689059 121.23105707 10.69604492 124.0715332 C14.33407758 125.01318659 17.96104059 125.99615703 21.58984375 126.97265625 C22.3297757 127.17101074 23.06970764 127.36936523 23.83206177 127.57373047 C79.93650149 142.62574906 79.93650149 142.62574906 94.9453125 165.6171875 C104.01942739 181.89040885 106.46586971 200.49960561 101.9765625 218.73828125 C97.79459225 232.98903702 91.14528142 244.08911555 80.4765625 254.36328125 C79.83203125 255.02714844 79.1875 255.69101562 78.5234375 256.375 C66.27260141 268.2263523 47.15268258 274.71274377 30.4765625 276.36328125 C30.48703613 276.95343018 30.49750977 277.5435791 30.50830078 278.15161133 C30.54988294 280.82629129 30.5758954 283.50090322 30.6015625 286.17578125 C30.61832031 287.10455078 30.63507813 288.03332031 30.65234375 288.99023438 C30.65878906 289.88291016 30.66523438 290.77558594 30.671875 291.6953125 C30.68234863 292.51749268 30.69282227 293.33967285 30.70361328 294.18676758 C30.4765625 296.36328125 30.4765625 296.36328125 28.4765625 299.36328125 C23.98759579 300.12206143 19.43892949 300.16415245 14.89257812 300.29150391 C13.24239544 300.34052914 11.59257907 300.4033229 9.94335938 300.47802734 C7.39204998 300.59263317 4.84199674 300.67014023 2.2890625 300.73828125 C1.08745483 300.79568481 1.08745483 300.79568481 -0.13842773 300.85424805 C-4.14677571 300.9107635 -6.0871859 300.63818722 -9.5546875 298.453125 C-12.33069647 294.09633314 -12.08060919 290.5985464 -11.8359375 285.55078125 C-11.81337891 284.66712891 -11.79082031 283.78347656 -11.76757812 282.87304688 C-11.70891178 280.70239215 -11.61923729 278.53261435 -11.5234375 276.36328125 C-12.15709229 276.25113281 -12.79074707 276.13898438 -13.44360352 276.0234375 C-35.51961247 272.02993098 -56.70748488 263.18141136 -70.4609375 244.76953125 C-78.68608136 232.43181546 -86.57364472 213.63845154 -84.5234375 198.36328125 C-83.08886719 196.22875977 -83.08886719 196.22875977 -80.5234375 194.36328125 C-77.39038777 193.77300752 -74.30121354 193.82669942 -71.12109375 193.8671875 C-70.20637802 193.86573227 -69.29166229 193.86427704 -68.34922791 193.86277771 C-66.41678683 193.86443594 -64.48433245 193.8759888 -62.55200195 193.89672852 C-59.59984977 193.92564498 -56.64949808 193.91734351 -53.69726562 193.90429688 C-51.81769963 193.91053576 -49.9381393 193.91892787 -48.05859375 193.9296875 C-47.17824966 193.92675186 -46.29790558 193.92381622 -45.3908844 193.92079163 C-40.63237172 193.99372424 -37.37620199 194.24927848 -33.5234375 197.36328125 C-32.5546875 199.203125 -32.5546875 199.203125 -32.0234375 201.30078125 C-28.81407695 212.24826667 -25.40036917 222.22893542 -15.2421875 228.3359375 C-0.34850693 236.3349564 13.62847473 237.25546984 29.8984375 232.55859375 C38.39980565 229.71861705 44.58631748 224.96425296 48.734375 216.92578125 C51.96093075 209.16399678 53.0752417 200.89340623 50.7109375 192.71484375 C49.77350919 190.47543167 48.72583699 188.44249334 47.4765625 186.36328125 C46.6721875 185.00203125 46.6721875 185.00203125 45.8515625 183.61328125 C36.26221023 174.52863173 20.70670327 172.41383361 8.3515625 169.11328125 C-1.11405039 166.58324468 -10.55358525 163.97757688 -19.9609375 161.23828125 C-21.05486816 160.92600586 -22.14879883 160.61373047 -23.27587891 160.29199219 C-41.11057057 155.04150276 -57.51998603 146.58012966 -67.8984375 130.61328125 C-68.81917137 128.88690524 -69.6922933 127.13453062 -70.5234375 125.36328125 C-71.25046875 123.87248047 -71.25046875 123.87248047 -71.9921875 122.3515625 C-78.26089911 107.0802845 -78.30363323 86.78156856 -72.06640625 71.51171875 C-62.51729935 52.02670569 -48.94106498 39.02489588 -28.5234375 31.36328125 C-16.41287761 27.36328125 -16.41287761 27.36328125 -10.5234375 27.36328125 C-10.5548584 26.29630005 -10.5548584 26.29630005 -10.58691406 25.20776367 C-10.66999475 21.98891297 -10.72207216 18.77028759 -10.7734375 15.55078125 C-10.80695313 14.43123047 -10.84046875 13.31167969 -10.875 12.15820312 C-10.89433594 10.54848633 -10.89433594 10.54848633 -10.9140625 8.90625 C-10.9454834 7.42161255 -10.9454834 7.42161255 -10.97753906 5.90698242 C-10.5234375 3.36328125 -10.5234375 3.36328125 -8.90673828 1.53955078 C-5.79535023 0.0039364 -3.46636419 -0.00894016 0 0 Z " fill="#01A3FE" transform="translate(232.5234375,72.63671875)"/>
<path d="M0 0 C0.99 0.33 1.98 0.66 3 1 C2.06725891 2.12894876 1.12859878 3.25300876 0.1875 4.375 C-0.33457031 5.00148438 -0.85664063 5.62796875 -1.39453125 6.2734375 C-3 8 -3 8 -6 10 C-6.99 9.67 -7.98 9.34 -9 9 C-8.43410156 8.51789063 -7.86820312 8.03578125 -7.28515625 7.5390625 C-6.55167969 6.90742188 -5.81820313 6.27578125 -5.0625 5.625 C-4.33160156 4.99851562 -3.60070312 4.37203125 -2.84765625 3.7265625 C-0.91619094 2.12252286 -0.91619094 2.12252286 0 0 Z " fill="#0E9DFD" transform="translate(279,293)"/>
<path d="M0 0 C0.99 0.33 1.98 0.66 3 1 C1.3790787 2.17232685 -0.24686833 3.3377077 -1.875 4.5 C-2.77992188 5.1496875 -3.68484375 5.799375 -4.6171875 6.46875 C-7 8 -7 8 -9 8 C-9 7.34 -9 6.68 -9 6 C-7.5459375 5.5978125 -7.5459375 5.5978125 -6.0625 5.1875 C-4.5465625 4.5996875 -4.5465625 4.5996875 -3 4 C-2.67 3.01 -2.34 2.02 -2 1 C-1.34 0.67 -0.68 0.34 0 0 Z " fill="#149EFE" transform="translate(307,329)"/>
<path d="M0 0 C3 1 3 1 4.16796875 2.84765625 C4.50441406 3.57855469 4.84085937 4.30945313 5.1875 5.0625 C5.53167969 5.79597656 5.87585938 6.52945313 6.23046875 7.28515625 C6.48441406 7.85105469 6.73835938 8.41695312 7 9 C6.34 9 5.68 9 5 9 C3.7109375 7.28515625 3.7109375 7.28515625 2.375 5.0625 C1.92898438 4.33160156 1.48296875 3.60070312 1.0234375 2.84765625 C0 1 0 1 0 0 Z " fill="#0B9EFE" transform="translate(312,129)"/>
<path d="M0 0 C0.99 0.495 0.99 0.495 2 1 C2 1.66 2 2.32 2 3 C2.66 3.33 3.32 3.66 4 4 C5.125 6.0625 5.125 6.0625 6 8 C5.01 8 4.02 8 3 8 C0.89229241 5.11165997 0 3.61537605 0 0 Z " fill="#119FFE" transform="translate(48,387)"/>
</svg>
